<svg width="512" height="376" viewBox="0 0 512 376" fill="none" xmlns="http://www.w3.org/2000/svg">
<path d="M480.042 61.9364C480.042 28.6513 453.06 1.66768 419.775 1.66731C386.489 1.66731 359.505 28.6511 359.505 61.9364C359.506 95.2215 386.489 122.204 419.775 122.204C453.059 122.204 480.042 95.2212 480.042 61.9364ZM481.134 61.9364C481.134 95.8245 453.663 123.296 419.775 123.296C385.886 123.296 358.413 95.8247 358.413 61.9364C358.413 28.0478 385.886 0.574951 419.775 0.574951C453.663 0.57532 481.134 28.0481 481.134 61.9364Z" fill="#EA3A90"/>
<path d="M411.931 30.7985C411.931 26.2635 408.254 22.5869 403.719 22.5867C399.184 22.5867 395.507 26.2634 395.507 30.7985C395.508 35.3335 399.184 39.0103 403.719 39.0103C408.254 39.0101 411.931 35.3334 411.931 30.7985ZM413.023 30.7985C413.023 35.9366 408.857 40.1025 403.719 40.1027C398.581 40.1027 394.415 35.9367 394.415 30.7985C394.415 25.6602 398.581 21.4944 403.719 21.4944C408.857 21.4946 413.023 25.6603 413.023 30.7985Z" fill="#EA3A90"/>
<path d="M437.228 95.5058C437.228 92.852 435.077 90.7003 432.423 90.7C429.77 90.7 427.618 92.8518 427.618 95.5058C427.618 98.1595 429.77 100.31 432.423 100.31C435.077 100.31 437.227 98.1593 437.228 95.5058ZM438.32 95.5058C438.32 98.7625 435.68 101.402 432.423 101.402C429.166 101.402 426.526 98.7627 426.525 95.5058C426.525 92.2486 429.166 89.6077 432.423 89.6077C435.68 89.6079 438.32 92.2488 438.32 95.5058Z" fill="#EA3A90"/>
<path d="M321.437 62.3808C321.437 61.8059 321.807 61.3639 322.259 61.0384C322.718 60.7077 323.364 60.4204 324.149 60.1595C325.726 59.6353 328.017 59.1741 330.912 58.7518C336.71 57.9059 345.05 57.1978 355.23 56.4731L355.268 57.0177L355.308 57.5623C345.125 58.2872 336.822 58.9937 331.069 59.833C328.188 60.2534 325.975 60.7034 324.493 61.1961C323.748 61.4435 323.224 61.6897 322.897 61.9254C322.564 62.1655 322.53 62.3216 322.529 62.3808C322.529 62.4416 322.563 62.5885 322.829 62.8187C323.091 63.0453 323.513 63.2939 324.119 63.5544C325.327 64.0736 327.142 64.5866 329.521 65.0814C334.272 66.0693 341.167 66.9638 349.711 67.7152C366.793 69.2175 390.403 70.1467 416.49 70.1467C442.576 70.1467 466.186 69.2175 483.268 67.7152C491.812 66.9638 498.707 66.0693 503.458 65.0814C505.838 64.5866 507.652 64.0736 508.861 63.5544C509.467 63.2939 509.889 63.0453 510.15 62.8187C510.416 62.5885 510.45 62.4416 510.45 62.3808C510.45 62.3299 510.426 62.2067 510.182 62.013C509.936 61.8175 509.533 61.6082 508.943 61.3951C507.77 60.9708 506.006 60.5824 503.685 60.2136C499.053 59.4773 492.333 58.8359 483.99 58.0862L484.088 56.997C492.42 57.7457 499.179 58.3924 503.856 59.1356C506.19 59.5065 508.039 59.9069 509.314 60.368C509.949 60.5976 510.48 60.8554 510.861 61.1579C511.243 61.4612 511.542 61.866 511.542 62.3808C511.542 62.8936 511.245 63.3149 510.865 63.6435C510.482 63.9756 509.943 64.2771 509.291 64.5575C507.981 65.1203 506.083 65.652 503.681 66.1515C498.867 67.1524 491.922 68.0501 483.364 68.8028C466.241 70.3086 442.597 71.2391 416.49 71.2391C390.382 71.2391 366.738 70.3086 349.615 68.8028C341.057 68.0501 334.112 67.1524 329.298 66.1515C326.896 65.652 324.997 65.1204 323.687 64.5575C323.035 64.2772 322.497 63.9755 322.114 63.6435C321.734 63.3148 321.437 62.8937 321.437 62.3808Z" fill="#EA3A90"/>
<path opacity="0.5" d="M479.446 74.48C462.72 75.7937 440.661 76.5915 416.489 76.5915C395.409 76.5915 375.936 75.9842 360.206 74.9577L360.276 73.8686C375.978 74.8932 395.428 75.4991 416.489 75.4991C440.64 75.4991 462.669 74.7017 479.361 73.3909L479.446 74.48Z" fill="#EA3A90"/>
<path d="M383.619 153.419V167.624H382.527V153.419H383.619Z" fill="#EA3A90"/>
<path d="M389.731 159.975V161.068H376.414V159.975H389.731Z" fill="#EA3A90"/>
<path d="M140.114 144.052V158.257H139.022V144.052H140.114Z" fill="#EA3A90"/>
<path d="M146.226 150.609V151.701H132.909V150.609H146.226Z" fill="#EA3A90"/>
<path d="M251.032 77.9741V92.1795H249.939V77.9741H251.032Z" fill="#EA3A90"/>
<path d="M257.144 84.5303V85.6226H243.827V84.5303H257.144Z" fill="#EA3A90"/>
<path d="M171.008 312.667V326.872H169.916V312.667H171.008Z" fill="#EA3A90"/>
<path d="M177.12 319.223V320.315H163.803V319.223H177.12Z" fill="#EA3A90"/>
<path d="M326.081 243.946V251.523H324.989V243.946H326.081Z" fill="#EA3A90"/>
<path d="M329.085 247.188V248.281H321.983V247.188H329.085Z" fill="#EA3A90"/>
<path d="M364.519 189.852V195.451H363.426V189.852H364.519Z" fill="#EA3A90"/>
<path d="M366.597 192.106V193.199H361.347V192.106H366.597Z" fill="#EA3A90"/>
<path d="M191.638 183.987V189.587H190.546V183.987H191.638Z" fill="#EA3A90"/>
<path d="M193.718 186.241V187.333H188.468V186.241H193.718Z" fill="#EA3A90"/>
<path d="M200.054 355.824V361.423H198.962V355.824H200.054Z" fill="#EA3A90"/>
<path d="M202.133 358.078V359.17H196.883V358.078H202.133Z" fill="#EA3A90"/>
<path d="M161.422 261.662V267.261H160.33V261.662H161.422Z" fill="#EA3A90"/>
<path d="M163.5 263.915V265.007H158.25V263.915H163.5Z" fill="#EA3A90"/>
<path d="M358.316 261.662V267.261H357.224V261.662H358.316Z" fill="#EA3A90"/>
<path d="M360.396 263.915V265.007H355.146V263.915H360.396Z" fill="#EA3A90"/>
<path d="M435.35 160.521C435.35 157.881 433.21 155.741 430.57 155.741C427.93 155.741 425.79 157.881 425.79 160.521C425.79 163.161 427.93 165.301 430.57 165.301C433.21 165.301 435.35 163.161 435.35 160.521ZM436.442 160.521C436.442 163.765 433.813 166.394 430.57 166.394C427.327 166.394 424.697 163.764 424.697 160.521C424.697 157.278 427.327 154.649 430.57 154.648C433.813 154.648 436.442 157.278 436.442 160.521Z" fill="#EA3A90"/>
<path d="M342.3 203.58C342.3 200.94 340.16 198.8 337.52 198.8C334.88 198.8 332.74 200.94 332.74 203.58C332.74 206.22 334.88 208.36 337.52 208.36C340.16 208.36 342.3 206.22 342.3 203.58ZM343.393 203.58C343.393 206.823 340.764 209.452 337.52 209.452C334.277 209.452 331.647 206.823 331.647 203.58C331.648 200.337 334.277 197.707 337.52 197.707C340.763 197.707 343.393 200.337 343.393 203.58Z" fill="#EA3A90"/>
<path d="M153.561 226.016C153.56 223.376 151.42 221.236 148.78 221.236C146.14 221.236 144 223.376 144 226.016C144 228.656 146.14 230.796 148.78 230.796C151.421 230.796 153.561 228.656 153.561 226.016ZM154.653 226.016C154.653 229.259 152.024 231.889 148.78 231.889C145.537 231.888 142.908 229.259 142.908 226.016C142.908 222.773 145.537 220.143 148.78 220.143C152.024 220.143 154.653 222.773 154.653 226.016Z" fill="#EA3A90"/>
<path d="M328.539 123.818C328.539 121.178 326.399 119.038 323.759 119.038C321.119 119.038 318.979 121.178 318.979 123.818C318.979 126.458 321.119 128.598 323.759 128.598C326.399 128.598 328.539 126.458 328.539 123.818ZM329.631 123.818C329.631 127.061 327.002 129.691 323.759 129.691C320.515 129.69 317.886 127.061 317.886 123.818C317.886 120.575 320.516 117.945 323.759 117.945C327.002 117.945 329.631 120.575 329.631 123.818Z" fill="#EA3A90"/>
<path d="M175.242 107.157C175.242 104.517 173.102 102.377 170.461 102.377C167.821 102.377 165.681 104.517 165.681 107.157C165.681 109.797 167.821 111.937 170.461 111.938C173.102 111.938 175.242 109.798 175.242 107.157ZM176.334 107.157C176.334 110.401 173.705 113.03 170.461 113.03C167.218 113.03 164.589 110.401 164.589 107.157C164.589 103.914 167.218 101.285 170.461 101.285C173.705 101.285 176.334 103.914 176.334 107.157Z" fill="#EA3A90"/>
<path d="M130.143 308.583C130.142 305.942 128.003 303.802 125.362 303.802C122.722 303.802 120.582 305.943 120.582 308.583C120.582 311.223 122.722 313.363 125.362 313.363C128.003 313.363 130.143 311.223 130.143 308.583ZM131.235 308.583C131.235 311.826 128.606 314.455 125.362 314.455C122.119 314.455 119.49 311.826 119.49 308.583C119.49 305.339 122.119 302.71 125.362 302.71C128.606 302.71 131.235 305.339 131.235 308.583Z" fill="#EA3A90"/>
<path d="M230.74 369.552C230.74 366.912 228.6 364.772 225.96 364.772C223.319 364.772 221.179 366.912 221.179 369.552C221.179 372.192 223.319 374.332 225.96 374.332C228.6 374.332 230.74 372.192 230.74 369.552ZM231.832 369.552C231.832 372.795 229.203 375.424 225.96 375.424C222.716 375.424 220.087 372.795 220.087 369.552C220.087 366.309 222.716 363.679 225.96 363.679C229.203 363.679 231.832 366.308 231.832 369.552Z" fill="#EA3A90"/>
<path d="M317.886 312.182C317.886 309.542 315.746 307.401 313.106 307.401C310.465 307.402 308.325 309.542 308.325 312.182C308.325 314.822 310.465 316.962 313.106 316.962C315.746 316.962 317.886 314.822 317.886 312.182ZM318.978 312.182C318.978 315.425 316.349 318.054 313.106 318.054C309.862 318.054 307.233 315.425 307.233 312.182C307.233 308.938 309.862 306.309 313.106 306.309C316.349 306.309 318.978 308.938 318.978 312.182Z" fill="#EA3A90"/>
<path d="M404.38 189.376C405.361 189.376 406.156 188.58 406.156 187.6C406.156 186.619 405.361 185.824 404.38 185.824C403.4 185.824 402.604 186.619 402.604 187.6C402.604 188.58 403.4 189.376 404.38 189.376Z" fill="#EA3A90"/>
<path d="M205.709 144.387C206.69 144.387 207.485 143.592 207.485 142.611C207.485 141.63 206.69 140.835 205.709 140.835C204.729 140.835 203.934 141.63 203.934 142.611C203.934 143.592 204.729 144.387 205.709 144.387Z" fill="#EA3A90"/>
<path d="M327.31 167.625C328.291 167.625 329.086 166.83 329.086 165.849C329.086 164.868 328.291 164.073 327.31 164.073C326.33 164.073 325.535 164.868 325.535 165.849C325.535 166.83 326.33 167.625 327.31 167.625Z" fill="#EA3A90"/>
<path d="M159.1 355.347C160.08 355.347 160.875 354.552 160.875 353.572C160.875 352.591 160.08 351.796 159.1 351.796C158.119 351.796 157.324 352.591 157.324 353.572C157.324 354.552 158.119 355.347 159.1 355.347Z" fill="#EA3A90"/>
<path d="M292.271 346.47C293.252 346.47 294.047 345.675 294.047 344.694C294.047 343.714 293.252 342.918 292.271 342.918C291.29 342.918 290.495 343.714 290.495 344.694C290.495 345.675 291.29 346.47 292.271 346.47Z" fill="#EA3A90"/>
<path d="M123.587 195.542C124.568 195.542 125.363 194.747 125.363 193.766C125.363 192.786 124.568 191.99 123.587 191.99C122.607 191.99 121.812 192.786 121.812 193.766C121.812 194.747 122.607 195.542 123.587 195.542Z" fill="#EA3A90"/>
<path d="M357.77 310.359C358.751 310.359 359.546 309.564 359.546 308.583C359.546 307.602 358.751 306.807 357.77 306.807C356.789 306.807 355.994 307.602 355.994 308.583C355.994 309.564 356.789 310.359 357.77 310.359Z" fill="#EA3A90"/>
<path d="M2.13225 137.163C0.413128 148.914 2.67839 162.775 6.93321 176.699C11.1853 190.615 17.4093 204.547 23.5622 216.422L24.4364 218.083C24.7314 218.635 25.0301 219.185 25.3329 219.734L26.3823 221.596C48.7466 260.44 92.275 284.313 137 289.032L138.422 289.171C139.806 289.294 141.077 289.373 142.207 289.397L144.102 289.417C163.657 289.426 182.133 283.255 195.874 276.968C202.963 273.725 208.783 270.455 212.83 267.997C214.852 266.768 216.431 265.742 217.503 265.024C218.039 264.665 218.448 264.383 218.723 264.191C218.86 264.096 218.964 264.022 219.034 263.973C219.068 263.949 219.094 263.93 219.112 263.917L219.135 263.902C219.136 263.901 219.137 263.9 219.457 264.343C219.777 264.784 219.776 264.785 219.776 264.785L219.774 264.787C219.773 264.788 219.771 264.789 219.769 264.79C219.765 264.793 219.757 264.798 219.749 264.804C219.73 264.818 219.703 264.838 219.667 264.863C219.596 264.914 219.489 264.99 219.349 265.088C219.069 265.283 218.654 265.569 218.112 265.932C217.027 266.658 215.434 267.692 213.397 268.93C209.322 271.406 203.464 274.696 196.33 277.96C182.513 284.282 163.874 290.519 144.1 290.51L142.185 290.489C141.024 290.465 139.727 290.385 138.323 290.26L136.885 290.118C91.8845 285.37 48.0079 261.345 25.4364 222.14L24.3775 220.261C24.0723 219.708 23.7704 219.154 23.473 218.597L22.5924 216.924C16.4203 205.012 10.166 191.016 5.88862 177.018C1.61394 163.028 -0.702194 148.987 1.05104 137.003L2.13225 137.163Z" fill="#EA3A90"/>
<path d="M262.562 293.629L219.205 282.005C215.639 281.048 212.599 278.715 210.753 275.517C208.908 272.32 208.408 268.52 209.364 264.954L219.877 225.742C221.128 221.077 224.18 217.1 228.363 214.686C232.547 212.271 237.517 211.617 242.183 212.867L277.249 222.268C281.914 223.519 285.891 226.572 288.306 230.755C290.72 234.938 291.374 239.909 290.124 244.575L279.613 283.789C278.657 287.355 276.323 290.395 273.126 292.24C269.928 294.085 266.128 294.585 262.562 293.629Z" fill="white"/>
<path d="M228.09 214.213C232.398 211.726 237.519 211.052 242.324 212.34L277.391 221.741L278.282 222.004C282.701 223.427 286.448 226.443 288.779 230.482C291.111 234.521 291.848 239.274 290.87 243.811L290.652 244.716L280.141 283.931C279.147 287.636 276.722 290.795 273.399 292.713C270.283 294.511 266.618 295.079 263.118 294.324L262.421 294.155L219.064 282.531C215.359 281.538 212.199 279.114 210.281 275.791C208.363 272.468 207.843 268.518 208.837 264.811L219.349 225.601L219.612 224.708C221.035 220.29 224.051 216.544 228.09 214.213ZM242.042 213.394C237.517 212.182 232.694 212.816 228.636 215.159C224.832 217.354 221.992 220.883 220.652 225.044L220.403 225.883L209.891 265.095C208.972 268.521 209.454 272.172 211.227 275.245C213 278.316 215.92 280.558 219.346 281.477L262.704 293.101L263.348 293.257C266.583 293.955 269.972 293.429 272.852 291.767C275.925 289.994 278.168 287.073 279.087 283.647L289.596 244.432L289.802 243.581C290.722 239.307 290.027 234.832 287.832 231.028C285.636 227.224 282.109 224.384 277.948 223.044L277.107 222.796L242.042 213.394Z" fill="#EA3A90"/>
<path d="M253.201 147.685L234.37 226.144L233.31 225.889L252.139 147.43L253.201 147.685Z" fill="#EA3A90"/>
<path d="M252.851 151.153C255.209 151.153 257.121 149.241 257.121 146.882C257.121 144.524 255.209 142.612 252.851 142.612C250.492 142.612 248.581 144.524 248.581 146.882C248.581 149.241 250.492 151.153 252.851 151.153Z" fill="white"/>
<path d="M256.576 146.883C256.576 144.826 254.908 143.158 252.852 143.158C250.795 143.158 249.127 144.826 249.127 146.883C249.127 148.939 250.795 150.607 252.852 150.607C254.908 150.607 256.576 148.939 256.576 146.883ZM257.667 146.883C257.667 149.543 255.511 151.698 252.852 151.698C250.192 151.698 248.035 149.543 248.035 146.883C248.035 144.223 250.192 142.066 252.852 142.066C255.511 142.066 257.667 144.223 257.667 146.883Z" fill="#EA3A90"/>
<path d="M277.613 232.237C279.078 233.565 280.387 235.056 281.515 236.68L300.186 268.588C301.426 270.727 301.766 273.271 301.13 275.66C300.495 278.05 298.936 280.089 296.797 281.329C294.658 282.569 292.114 282.908 289.725 282.273C287.336 281.637 285.297 280.079 284.057 277.94L280.305 271.467" fill="white"/>
<path d="M277.98 231.832C279.288 233.019 280.475 234.333 281.523 235.754L281.964 236.369L281.986 236.404L300.658 268.313V268.315L300.894 268.743C302.012 270.914 302.289 273.429 301.658 275.8C301.027 278.171 299.538 280.217 297.489 281.545L297.072 281.802C294.808 283.115 292.114 283.473 289.585 282.8C287.213 282.169 285.168 280.681 283.839 278.631L283.585 278.214L279.833 271.741L280.306 271.467L280.777 271.193L284.529 277.666L284.757 278.037C285.938 279.86 287.757 281.183 289.865 281.744C292.114 282.343 294.509 282.023 296.523 280.856L296.894 280.628C298.716 279.447 300.041 277.629 300.602 275.52C301.2 273.271 300.881 270.876 299.714 268.862V268.861L281.054 236.977C279.953 235.392 278.677 233.937 277.247 232.641L277.98 231.832Z" fill="#EA3A90"/>
<path d="M296.456 280.223C298.12 279.256 299.443 277.796 300.244 276.046C301.045 274.295 301.285 272.339 300.929 270.448C302.346 271.261 303.557 272.39 304.467 273.746C305.378 275.102 305.965 276.65 306.182 278.269C306.399 279.889 306.24 281.536 305.718 283.085C305.197 284.633 304.326 286.04 303.173 287.198C302.02 288.356 300.617 289.233 299.071 289.762C297.525 290.29 295.878 290.456 294.258 290.246C292.637 290.036 291.087 289.457 289.727 288.552C288.366 287.647 287.233 286.441 286.413 285.028C285.238 283.005 284.526 281.131 284.749 278.969C287.656 282.017 292.654 282.431 296.456 280.223Z" fill="white"/>
<path d="M301.202 269.975C302.691 270.83 303.964 272.015 304.921 273.441C305.879 274.867 306.494 276.495 306.722 278.197C306.95 279.9 306.785 281.632 306.237 283.26C305.688 284.887 304.771 286.366 303.56 287.583C302.348 288.8 300.873 289.723 299.248 290.279C297.623 290.834 295.891 291.009 294.187 290.788C292.484 290.568 290.855 289.958 289.424 289.006C288.173 288.174 287.103 287.1 286.278 285.849L285.94 285.303C284.742 283.238 283.964 281.243 284.205 278.912L284.327 277.736L285.144 278.592C287.851 281.43 292.564 281.852 296.181 279.752L296.471 279.575C297.901 278.667 299.041 277.363 299.748 275.819C300.502 274.171 300.727 272.329 300.393 270.548L300.173 269.384L301.202 269.975ZM301.614 271.545C301.717 273.162 301.421 274.787 300.741 276.272C299.946 278.009 298.665 279.476 297.057 280.497L296.73 280.696C293.113 282.797 288.425 282.656 285.267 280.175C285.36 281.716 285.96 283.16 286.885 284.753V284.755L287.19 285.247C287.935 286.376 288.9 287.346 290.03 288.097C291.32 288.955 292.79 289.505 294.327 289.704C295.865 289.903 297.428 289.747 298.894 289.245C300.361 288.744 301.692 287.911 302.786 286.812C303.879 285.714 304.707 284.379 305.202 282.911C305.696 281.442 305.847 279.879 305.641 278.342C305.435 276.806 304.878 275.338 304.014 274.051C303.362 273.081 302.55 272.233 301.614 271.545Z" fill="#EA3A90"/>
<path d="M237.869 221.935C236.131 222.286 234.444 222.857 232.85 223.633L200.721 241.92C199.659 242.53 198.728 243.343 197.981 244.313C197.234 245.282 196.685 246.39 196.365 247.572C196.046 248.753 195.962 249.987 196.12 251.201C196.277 252.415 196.672 253.586 197.282 254.647C197.892 255.709 198.705 256.64 199.674 257.387C200.644 258.135 201.751 258.684 202.933 259.003C204.115 259.322 205.348 259.406 206.562 259.249C207.776 259.091 208.948 258.696 210.009 258.087L216.497 254.359" fill="white"/>
<path d="M237.977 222.47C236.289 222.811 234.65 223.364 233.101 224.118L200.991 242.395L200.99 242.393C199.991 242.967 199.117 243.734 198.413 244.646C197.71 245.559 197.193 246.602 196.893 247.715C196.592 248.827 196.514 249.988 196.662 251.131C196.81 252.274 197.182 253.376 197.756 254.376L197.979 254.745C198.522 255.592 199.209 256.34 200.007 256.955C200.92 257.659 201.963 258.175 203.076 258.476C204.188 258.777 205.349 258.855 206.491 258.707C207.634 258.559 208.737 258.187 209.737 257.613L216.224 253.885L216.496 254.36L216.769 254.833L210.281 258.56C209.158 259.206 207.917 259.623 206.632 259.79C205.347 259.956 204.042 259.868 202.791 259.53C201.54 259.192 200.367 258.611 199.34 257.82C198.442 257.128 197.671 256.287 197.06 255.334L196.808 254.92C196.163 253.797 195.744 252.556 195.577 251.271C195.411 249.986 195.501 248.681 195.839 247.43C196.177 246.179 196.758 245.006 197.549 243.979C198.34 242.953 199.325 242.093 200.448 241.447L200.45 241.446L232.581 223.159L232.595 223.15L232.611 223.142L233.229 222.853C234.68 222.203 236.2 221.715 237.761 221.4L237.977 222.47Z" fill="#EA3A90"/>
<path d="M198.132 253.862C197.175 252.192 196.759 250.266 196.941 248.35C197.123 246.433 197.895 244.62 199.149 243.16C197.515 243.156 195.902 243.527 194.435 244.246C192.968 244.965 191.686 246.011 190.688 247.305C189.69 248.599 189.003 250.104 188.68 251.706C188.357 253.308 188.407 254.962 188.826 256.541C189.244 258.12 190.021 259.582 191.095 260.813C192.169 262.044 193.512 263.012 195.02 263.641C196.528 264.27 198.16 264.543 199.791 264.44C201.421 264.338 203.006 263.861 204.423 263.047C206.453 261.883 208.007 260.617 208.895 258.633C204.854 259.817 200.319 257.676 198.132 253.862Z" fill="white"/>
<path d="M200.335 242.617L199.563 243.515C198.382 244.89 197.656 246.598 197.485 248.402C197.314 250.206 197.704 252.018 198.605 253.59L198.807 253.926C200.954 257.341 205.096 259.177 208.741 258.109L209.877 257.776L209.393 258.856C208.436 260.994 206.764 262.332 204.694 263.52L204.695 263.522C203.206 264.377 201.538 264.877 199.824 264.985C198.11 265.093 196.395 264.805 194.81 264.144C193.225 263.483 191.812 262.467 190.683 261.173C189.553 259.879 188.737 258.341 188.297 256.681C187.857 255.021 187.805 253.282 188.144 251.598C188.484 249.915 189.205 248.332 190.254 246.972C191.303 245.613 192.651 244.511 194.194 243.756C195.736 243 197.432 242.61 199.149 242.614L200.335 242.617ZM198.004 243.769C196.85 243.897 195.723 244.223 194.675 244.737C193.283 245.419 192.066 246.411 191.119 247.638C190.172 248.865 189.521 250.295 189.214 251.815C188.908 253.334 188.956 254.903 189.353 256.401C189.75 257.899 190.487 259.287 191.506 260.455C192.525 261.623 193.8 262.54 195.23 263.136C196.661 263.733 198.209 263.993 199.756 263.896C201.303 263.798 202.807 263.346 204.151 262.574L204.87 262.143C206.126 261.354 207.121 260.505 207.84 259.418C204.003 259.965 200.023 257.912 197.88 254.504L197.657 254.135C196.644 252.367 196.205 250.327 196.398 248.299C196.552 246.673 197.107 245.118 198.004 243.769Z" fill="#EA3A90"/>
<path d="M272.735 233.809C267.27 234.678 261.683 234.386 256.337 232.953C250.992 231.52 246.008 228.977 241.711 225.491C235.923 226.917 230.624 229.87 226.367 234.042C222.111 238.215 219.052 243.453 217.51 249.211L216.59 252.643C215.456 256.866 215.166 261.272 215.735 265.608C216.304 269.944 217.722 274.125 219.907 277.914C222.092 281.702 225.002 285.022 228.47 287.686C231.939 290.349 235.898 292.303 240.122 293.437C244.346 294.568 248.752 294.857 253.087 294.286C257.423 293.714 261.604 292.295 265.391 290.108C269.178 287.921 272.497 285.01 275.159 281.54C277.82 278.07 279.773 274.11 280.904 269.886L281.825 266.454C283.37 260.698 283.342 254.631 281.743 248.889C280.145 243.147 277.034 237.939 272.735 233.809Z" fill="white"/>
<path d="M242.055 225.067C246.293 228.505 251.207 231.013 256.478 232.426C261.75 233.839 267.259 234.126 272.649 233.27L272.918 233.227L273.114 233.416C277.482 237.614 280.645 242.906 282.27 248.743C283.793 254.214 283.913 259.976 282.628 265.496L282.353 266.596L281.432 270.028C280.282 274.321 278.297 278.347 275.591 281.873C272.886 285.399 269.512 288.358 265.663 290.58C261.814 292.803 257.565 294.246 253.158 294.827C249.027 295.371 244.833 295.147 240.787 294.169L239.98 293.964C235.687 292.812 231.663 290.826 228.138 288.118C224.612 285.411 221.655 282.037 219.434 278.187C217.213 274.337 215.772 270.086 215.193 265.679C214.615 261.272 214.909 256.793 216.061 252.501L216.982 249.069C218.549 243.217 221.658 237.892 225.985 233.652C230.311 229.411 235.698 226.41 241.58 224.961L241.843 224.896L242.055 225.067ZM241.587 226.088C235.993 227.514 230.874 230.39 226.749 234.432C222.824 238.28 219.934 243.049 218.338 248.297L218.037 249.353L217.117 252.784C216.002 256.938 215.716 261.272 216.276 265.537C216.836 269.802 218.23 273.915 220.38 277.641C222.529 281.367 225.392 284.632 228.803 287.252C232.215 289.872 236.109 291.795 240.263 292.91L241.044 293.109C244.959 294.055 249.017 294.271 253.015 293.744C257.28 293.182 261.392 291.785 265.117 289.634C268.842 287.483 272.107 284.62 274.725 281.208C277.343 277.795 279.264 273.899 280.377 269.744L281.297 266.313L281.564 265.247C282.808 259.906 282.692 254.331 281.217 249.036C279.668 243.472 276.674 238.421 272.544 234.389C267.091 235.217 261.524 234.91 256.195 233.481C250.866 232.053 245.894 229.533 241.587 226.088Z" fill="#EA3A90"/>
<path d="M217.024 253.157C234.523 266.892 256.72 272.846 278.991 270.276L279.01 270.273H279.029L280.648 270.197L280.699 271.287L279.093 271.362C256.556 273.957 234.078 267.932 216.349 254.017L217.024 253.157Z" fill="#EA3A90"/>
<path d="M245.677 294.998L236.088 330.765C235.787 331.891 235.709 333.066 235.861 334.222C236.013 335.378 236.392 336.492 236.975 337.502C237.557 338.512 238.333 339.397 239.258 340.107C240.183 340.817 241.239 341.338 242.365 341.639C243.491 341.941 244.666 342.018 245.822 341.866C246.978 341.714 248.092 341.336 249.102 340.753C250.112 340.17 250.997 339.394 251.707 338.47C252.417 337.545 252.937 336.489 253.239 335.363L265.188 290.795C259.405 294.43 252.757 295.436 245.677 294.998Z" fill="white"/>
<path d="M253.767 335.503C253.446 336.699 252.894 337.821 252.141 338.803C251.387 339.785 250.447 340.608 249.375 341.226C248.303 341.845 247.119 342.247 245.892 342.408C244.819 342.549 243.73 342.504 242.674 342.276L242.224 342.167C241.028 341.847 239.908 341.294 238.926 340.54C237.944 339.787 237.121 338.847 236.502 337.776C235.884 336.704 235.482 335.52 235.321 334.293C235.159 333.066 235.241 331.818 235.561 330.623L245.15 294.857L245.265 294.425L245.711 294.453C252.72 294.886 259.243 293.887 264.897 290.333L266.076 289.591L253.767 335.503ZM264.314 291.946C258.81 295.027 252.612 295.912 246.09 295.564L236.615 330.906C236.332 331.963 236.261 333.065 236.404 334.15C236.546 335.235 236.901 336.282 237.448 337.23C237.995 338.177 238.724 339.008 239.592 339.674C240.459 340.34 241.45 340.828 242.507 341.112L242.905 341.209C243.839 341.411 244.802 341.45 245.751 341.325C246.835 341.182 247.881 340.827 248.829 340.281C249.776 339.734 250.607 339.005 251.273 338.137C251.939 337.269 252.429 336.278 252.713 335.222L264.314 291.946Z" fill="#EA3A90"/>
<path d="M257.562 319.241L257.279 320.296L240.127 315.698L240.411 314.644L257.562 319.241Z" fill="#EA3A90"/>
<path d="M234.53 292.01L224.941 327.776C224.331 330.051 222.843 331.989 220.803 333.166C218.764 334.343 216.341 334.662 214.066 334.053C211.792 333.442 209.854 331.954 208.677 329.914C207.501 327.874 207.182 325.451 207.793 323.176L219.741 278.608C222.927 284.65 228.18 288.846 234.53 292.01Z" fill="white"/>
<path d="M220.225 278.354C223.339 284.261 228.486 288.388 234.773 291.521L235.172 291.72L235.058 292.151L225.468 327.917C224.821 330.331 223.241 332.389 221.077 333.639C219.047 334.81 216.659 335.181 214.379 334.69L213.925 334.58C211.511 333.932 209.453 332.352 208.204 330.186C206.955 328.021 206.617 325.449 207.265 323.035L219.575 277.121L220.225 278.354ZM208.32 323.319C207.748 325.453 208.046 327.726 209.15 329.64C210.254 331.554 212.073 332.953 214.207 333.526L214.61 333.623C216.626 334.057 218.737 333.728 220.531 332.693C222.444 331.588 223.84 329.769 224.413 327.635L233.887 292.293C228.067 289.332 223.143 285.466 219.921 280.045L208.32 323.319Z" fill="#EA3A90"/>
<path d="M229.262 311.655L229.121 312.182L228.98 312.71L211.829 308.111L212.113 307.057L229.262 311.655Z" fill="#EA3A90"/>
<path d="M303.698 210.663C309.635 188.52 296.977 165.885 275.426 160.107C253.875 154.329 231.591 167.595 225.654 189.738C219.717 211.881 232.375 234.516 253.926 240.294C275.478 246.072 297.761 232.806 303.698 210.663Z" fill="white"/>
<path d="M275.284 160.635C254.037 154.938 232.044 168.015 226.182 189.88C220.319 211.745 232.821 234.07 254.067 239.766C275.314 245.463 297.308 232.387 303.171 210.522C309.033 188.656 296.53 166.331 275.284 160.635ZM275.567 159.579C297.423 165.439 310.237 188.384 304.226 210.805C298.215 233.225 275.64 246.681 253.784 240.821C231.929 234.961 219.115 212.017 225.126 189.597C231.138 167.176 253.711 153.72 275.567 159.579Z" fill="#EA3A90"/>
<path d="M257.676 164.112L257.792 164.645C252.552 165.792 247.635 168.102 243.408 171.405L242.736 170.545C247.092 167.141 252.158 164.76 257.558 163.578L257.676 164.112Z" fill="#EA3A90"/>
<path d="M291.16 220.933C290.752 222.469 289.978 223.884 288.905 225.057C287.832 226.231 286.492 227.127 284.998 227.671C278.747 229.933 267.448 232.908 256.663 230.016C245.878 227.124 237.582 218.896 233.3 213.811C232.28 212.592 231.568 211.145 231.226 209.593C230.885 208.041 230.923 206.429 231.338 204.894L236.33 186.272C236.576 185.351 237.099 184.527 237.828 183.912C238.558 183.298 239.458 182.922 240.408 182.836C244.933 182.428 254.171 182.429 268.398 186.244C282.625 190.058 290.624 194.678 294.338 197.296C295.117 197.846 295.708 198.622 296.032 199.52C296.355 200.417 296.395 201.391 296.147 202.312L291.16 220.933Z" fill="white"/>
<path d="M241.276 182.22C246.135 181.894 255.148 182.125 268.54 185.716C282.825 189.546 290.884 194.191 294.653 196.849V196.851L294.97 197.093C295.684 197.684 296.229 198.458 296.545 199.335C296.906 200.337 296.952 201.426 296.674 202.454L291.688 221.074C291.257 222.695 290.44 224.188 289.308 225.426C288.176 226.664 286.762 227.611 285.185 228.185H285.184C278.902 230.458 267.471 233.48 256.521 230.544C245.572 227.607 237.185 219.273 232.883 214.163V214.161C231.805 212.876 231.054 211.349 230.693 209.711C230.333 208.073 230.373 206.371 230.811 204.752L235.803 186.131L235.919 185.751C236.226 184.875 236.764 184.095 237.477 183.494C238.291 182.808 239.298 182.388 240.359 182.292L241.276 182.22ZM268.257 186.771C254.974 183.21 246.082 182.991 241.349 183.309L240.457 183.38C239.619 183.455 238.824 183.788 238.18 184.33C237.537 184.873 237.076 185.6 236.859 186.413L236.857 186.415L231.865 205.036V205.037C231.473 206.486 231.437 208.009 231.76 209.475C232.083 210.941 232.753 212.308 233.717 213.459H233.719C237.979 218.52 246.185 226.64 256.805 229.488C267.424 232.335 278.59 229.409 284.811 227.158L285.333 226.95C286.535 226.428 287.615 225.658 288.502 224.688C289.516 223.58 290.247 222.243 290.633 220.792L295.62 202.171V202.169L295.69 201.864C295.826 201.144 295.768 200.397 295.518 199.704C295.268 199.012 294.837 198.401 294.273 197.934L294.023 197.743C290.365 195.163 282.425 190.57 268.257 186.771Z" fill="#EA3A90"/>
</svg>
