<svg width="37" height="33" viewBox="0 0 37 33" fill="none" xmlns="http://www.w3.org/2000/svg">
<path fill-rule="evenodd" clip-rule="evenodd" d="M26.116 0C27.5903 0 28.8058 0 29.7987 0.0782276C30.8277 0.162473 31.7784 0.342998 32.669 0.794311C34.047 1.49836 35.1723 2.61761 35.8764 4.00164C36.3277 4.89223 36.5082 5.83698 36.5924 6.87199C36.6707 7.86488 36.6707 9.08042 36.6707 10.5547V18.7746C36.6707 20.2489 36.6707 21.4644 36.5924 22.4573C36.5082 23.4863 36.3277 24.4371 35.8764 25.3277C35.1723 26.7057 34.0531 27.831 32.669 28.535C31.7784 28.9863 30.8337 29.1668 29.7987 29.2511C28.8058 29.3293 27.5903 29.3293 26.116 29.3293H10.5547C10.296 29.3173 10.0372 29.3233 9.77845 29.3474C9.66411 29.3654 9.5558 29.3895 9.44748 29.4256C9.20678 29.5219 8.9721 29.6302 8.74945 29.7566L2.65372 32.8074C2.40098 32.9338 2.11816 33 1.83534 33C0.824398 33 0 32.1816 0 31.1647V10.5547C0 9.08042 0 7.86488 0.0782276 6.87199C0.16849 5.83698 0.349015 4.89223 0.800328 4.00164C1.50438 2.62363 2.62363 1.49836 4.00766 0.794311C4.89825 0.342998 5.843 0.162473 6.87801 0.0782276C7.8709 0 9.08643 0 10.5607 0H26.116ZM29.5038 3.73687C28.6794 3.66466 27.6143 3.66466 26.0377 3.66466H10.6329C9.06236 3.66466 7.99726 3.66466 7.16685 3.73687C6.3605 3.80306 5.95131 3.9174 5.66247 4.06783C4.98249 4.41685 4.41685 4.97648 4.06783 5.66849C3.92341 5.95733 3.80306 6.36652 3.73687 7.17287C3.66466 7.99726 3.66466 9.06236 3.66466 10.6389V28.2101L7.10667 26.4891L7.1849 26.453C7.57002 26.2604 7.91302 26.0919 8.28009 25.9655C8.59901 25.8572 8.92998 25.779 9.27298 25.7309C9.6581 25.6767 10.0372 25.6767 10.4705 25.6767H26.0438C27.6143 25.6767 28.6794 25.6767 29.5098 25.6045C30.3162 25.5383 30.7254 25.424 31.0142 25.2735C31.7062 24.9245 32.2659 24.3589 32.6149 23.6729C32.7593 23.384 32.8797 22.9748 32.9458 22.1685C33.0181 21.3441 33.0181 20.279 33.0181 18.7024V10.6329C33.0181 9.06236 33.0181 7.99726 32.9519 7.16685C32.8857 6.3605 32.7713 5.95131 32.6209 5.66247C32.2719 4.97046 31.7062 4.41083 31.0202 4.06182C30.7194 3.9174 30.3042 3.79705 29.5038 3.73687Z" fill="#EA3A90"/>
<path d="M26.9404 15.6094C26.5733 16.0547 24.9546 17.3906 24.1182 18.0706C23.8173 18.3173 23.3901 18.3173 23.0892 18.0706C22.2467 17.3846 20.634 16.0547 20.267 15.6094C19.7013 14.9294 19.4426 14.2856 19.4426 13.5815C19.4426 12.8955 19.6773 12.2637 20.1045 11.8003C20.5378 11.331 21.1275 11.0722 21.7713 11.0722C22.2527 11.0722 22.692 11.2226 23.0771 11.5235C23.2817 11.68 23.4562 11.8665 23.6067 12.0771C23.7571 11.8665 23.9316 11.68 24.1362 11.5235C24.5213 11.2226 24.9666 11.0722 25.448 11.0722C26.0919 11.0722 26.6816 11.331 27.1149 11.8003C27.5421 12.2637 27.7768 12.8895 27.7768 13.5815C27.7648 14.2856 27.506 14.9294 26.9404 15.6094Z" fill="#EA3A90"/>
<path fill-rule="evenodd" clip-rule="evenodd" d="M9.53174 15.8862C9.52572 15.8862 9.5197 15.8922 9.51369 15.8922C8.97211 16.169 8.75548 16.837 9.03228 17.3786C9.30909 17.9201 9.97703 18.1368 10.5186 17.86L14.9415 15.6515C15.1581 15.5432 15.3266 15.3687 15.4349 15.1581C15.7057 14.6105 15.483 13.9486 14.9415 13.6778L10.5186 11.4694C10.5126 11.4694 10.5066 11.4633 10.5006 11.4633C9.95296 11.1926 9.29104 11.4212 9.02025 11.9688C8.74946 12.5164 8.97813 13.1783 9.52572 13.4491L11.9688 14.6707L9.53174 15.8862Z" fill="#EA3A90"/>
</svg>
