<svg width="209" height="58" viewBox="0 0 209 58" fill="none" xmlns="http://www.w3.org/2000/svg">
<path d="M78.27 15.0101V18.4201C79.13 16.8401 80.03 15.8301 80.99 15.4001C81.95 14.9701 82.85 14.7601 83.71 14.7601C84.57 14.7601 85.32 14.8801 85.96 15.1101C86.6 15.3401 87.16 15.6501 87.62 16.0501C88.08 16.4501 88.47 16.9101 88.78 17.4401C89.09 17.9701 89.35 18.5501 89.55 19.1701C90.01 18.1801 90.49 17.4001 90.99 16.8201C91.48 16.2401 91.98 15.8001 92.47 15.4801C92.96 15.1701 93.45 14.9701 93.93 14.8901C94.41 14.8101 94.85 14.7701 95.24 14.7701C96.72 14.7701 97.92 15.0501 98.83 15.6101C99.74 16.1701 100.42 16.8901 100.88 17.7601C101.34 18.6301 101.65 19.5901 101.8 20.6301C101.95 21.6701 102.02 22.6701 102.02 23.6201C102.02 24.2101 102 24.8701 101.97 25.5701C101.94 26.2801 101.9 27.0101 101.87 27.7501C101.84 28.4901 101.8 29.2301 101.77 29.9801C101.74 30.7201 101.72 31.4101 101.72 32.0301C101.72 32.2901 101.74 32.6701 101.77 33.1401C101.8 33.6201 101.89 34.0901 102.02 34.5501C102.15 35.0101 102.37 35.4201 102.66 35.7601C102.96 36.1101 103.39 36.2801 103.95 36.2801C104.71 36.2801 105.39 35.8501 106 34.9901C106.61 34.1301 107.11 32.7601 107.51 30.8801H109.34C108.98 32.9601 108.51 34.6001 107.95 35.8001C107.39 37.0001 106.8 37.9201 106.17 38.5501C105.54 39.1801 104.92 39.5801 104.29 39.7601C103.66 39.9401 103.09 40.0301 102.56 40.0301C101.5 40.0301 100.61 39.8201 99.89 39.4101C99.17 39.0001 98.57 38.4501 98.11 37.7501C97.65 37.0601 97.31 36.2501 97.1 35.3301C96.89 34.4101 96.78 33.4501 96.78 32.4601C96.78 32.1601 96.79 31.6101 96.8 30.8001C96.82 29.9901 96.83 29.1301 96.85 28.2001C96.87 27.2801 96.88 26.4001 96.9 25.5801C96.92 24.7601 96.92 24.1801 96.92 23.8501C96.92 22.7901 96.84 21.9201 96.67 21.2301C96.5 20.5401 96.27 19.9901 95.98 19.6001C95.69 19.2101 95.34 18.9201 94.97 18.7601C94.59 18.6001 94.19 18.5101 93.76 18.5101C92.74 18.5101 91.9 18.9201 91.26 19.7501C90.62 20.5701 90.16 21.9601 89.9 23.9101V39.7401H84.95V23.2201C84.95 22.6301 84.93 22.0501 84.88 21.4901C84.83 20.9301 84.71 20.4301 84.51 19.9801C84.31 19.5301 84.03 19.1801 83.67 18.9201C83.31 18.6601 82.81 18.5201 82.19 18.5201C81.13 18.5201 80.33 18.9601 79.79 19.8301C79.25 20.7001 78.74 22.0601 78.28 23.9101V39.7401H73.33V15.0101H78.27Z" fill="#25265D"/>
<path d="M125.87 15.0101V31.8301C125.87 32.1601 125.89 32.5701 125.92 33.0701C125.95 33.5601 126.04 34.0501 126.19 34.5301C126.34 35.0101 126.56 35.4201 126.86 35.7701C127.16 36.1201 127.57 36.2901 128.1 36.2901C129.72 36.2901 130.9 34.4901 131.66 30.9001H133.49C133.13 32.9801 132.67 34.6201 132.11 35.8201C131.55 37.0201 130.95 37.9401 130.33 38.5701C129.7 39.2001 129.06 39.6001 128.4 39.7801C127.74 39.9601 127.15 40.0501 126.62 40.0501C125.86 40.0501 125.21 39.9201 124.67 39.6501C124.13 39.3801 123.66 39.0401 123.28 38.6101C122.9 38.1801 122.6 37.6901 122.36 37.1301C122.13 36.5701 121.95 35.9801 121.82 35.3501C121.32 36.6401 120.53 37.7401 119.42 38.6701C118.31 39.5901 116.97 40.0601 115.39 40.0601C114.4 40.0601 113.4 39.8601 112.4 39.4701C111.4 39.0801 110.49 38.4201 109.68 37.5201C108.87 36.6101 108.21 35.4401 107.7 34.0101C107.19 32.5701 106.93 30.8201 106.93 28.7401C106.93 27.2201 107.1 25.6401 107.45 23.9901C107.8 22.3401 108.35 20.8401 109.11 19.4901C109.87 18.1401 110.84 17.0201 112.03 16.1301C113.22 15.2401 114.65 14.7901 116.34 14.7901C116.74 14.7901 117.16 14.8301 117.6 14.9101C118.05 14.9901 118.47 15.1301 118.89 15.3201C119.3 15.5101 119.69 15.7801 120.05 16.1201C120.41 16.4601 120.71 16.8701 120.94 17.3601V15.0301H125.87V15.0101ZM116.62 36.2801C117.12 36.2801 117.62 36.1401 118.13 35.8601C118.64 35.5801 119.1 35.2001 119.52 34.7201C119.93 34.2401 120.27 33.6701 120.53 33.0101C120.79 32.3501 120.93 31.6401 120.93 30.8801V19.5601C120.7 19.0301 120.34 18.5401 119.87 18.1001C119.39 17.6501 118.77 17.4301 118.01 17.4301C116.95 17.4301 116.05 17.7901 115.29 18.5001C114.53 19.2101 113.92 20.1001 113.46 21.1801C113 22.2501 112.66 23.4301 112.44 24.7001C112.23 25.9701 112.12 27.1901 112.12 28.3501C112.12 31.2001 112.51 33.2301 113.28 34.4501C114.06 35.6701 115.17 36.2801 116.62 36.2801Z" fill="#25265D"/>
<path d="M136.61 7.4801V15.0001H140.42V16.7801H136.61V31.8301C136.61 32.2301 136.63 32.6801 136.66 33.1901C136.69 33.7001 136.78 34.1901 136.93 34.6501C137.08 35.1101 137.31 35.5001 137.62 35.8101C137.93 36.1201 138.37 36.2801 138.93 36.2801C139.82 36.2801 140.67 35.8301 141.48 34.9401C142.29 34.0501 142.92 32.7001 143.39 30.8801H145.22C144.66 32.9601 144.06 34.6001 143.41 35.8001C142.77 37.0001 142.1 37.9201 141.41 38.5501C140.72 39.1801 140.03 39.5801 139.36 39.7601C138.68 39.9401 138.07 40.0301 137.5 40.0301C136.31 40.0301 135.34 39.8101 134.58 39.3601C133.82 38.9201 133.23 38.3501 132.8 37.6601C132.37 36.9701 132.07 36.2001 131.91 35.3601C131.74 34.5201 131.66 33.6901 131.66 32.8701V16.7701H129.98V14.9901H131.66V8.1801L136.61 7.4801Z" fill="#25265D"/>
<path d="M154.52 22.5801C154.78 22.3501 154.99 21.9801 155.14 21.4801C155.29 20.9801 155.36 20.4901 155.36 20.0301C155.36 19.2801 155.12 18.6601 154.64 18.1701C154.16 17.6801 153.49 17.4301 152.64 17.4301C151.75 17.4301 151.01 17.7601 150.41 18.4201C149.81 19.0801 149.34 19.9101 148.98 20.9101C148.62 21.9101 148.36 23.0301 148.21 24.2701C148.06 25.5101 147.99 26.7101 147.99 27.9001C147.99 29.6401 148.15 31.0601 148.46 32.1501C148.77 33.2401 149.19 34.0801 149.72 34.6901C150.25 35.3001 150.87 35.7201 151.58 35.9501C152.29 36.1801 153.04 36.3001 153.83 36.3001C155.58 36.3001 157.05 35.8601 158.26 34.9901C159.46 34.1201 160.49 32.7601 161.35 30.9101H163.03C162.63 32.1301 162.07 33.2901 161.35 34.4001C160.62 35.5101 159.78 36.4801 158.83 37.3201C157.87 38.1601 156.83 38.8301 155.71 39.3201C154.59 39.8101 153.42 40.0601 152.2 40.0601C151.04 40.0601 149.91 39.8601 148.79 39.4701C147.67 39.0701 146.66 38.4201 145.77 37.5201C144.88 36.6101 144.15 35.4301 143.59 33.9601C143.03 32.4901 142.75 30.6901 142.75 28.5401C142.75 27.1501 142.87 25.6601 143.12 24.0601C143.37 22.4601 143.83 20.9801 144.51 19.6101C145.19 18.2401 146.12 17.0901 147.31 16.1701C148.5 15.2501 150.03 14.7801 151.91 14.7801C153.99 14.7801 155.57 15.2801 156.66 16.2901C157.75 17.3001 158.29 18.7701 158.29 20.7201C158.29 21.5501 158.13 22.2401 157.82 22.8001C157.51 23.3601 157.02 23.6401 156.36 23.6401C155.63 23.6101 155.02 23.2701 154.52 22.5801Z" fill="#25265D"/>
<path d="M166.25 5.11011V18.7701C166.74 17.8801 167.25 17.1601 167.76 16.6201C168.27 16.0801 168.79 15.6701 169.32 15.4101C169.85 15.1501 170.35 14.9701 170.83 14.8901C171.31 14.8101 171.76 14.7701 172.19 14.7701C173.67 14.7701 174.87 15.0501 175.78 15.6101C176.69 16.1701 177.37 16.8901 177.83 17.7601C178.29 18.6301 178.6 19.5901 178.75 20.6301C178.9 21.6701 178.97 22.6701 178.97 23.6201C178.97 24.2101 178.95 24.8701 178.92 25.5701C178.89 26.2801 178.85 27.0101 178.82 27.7501C178.79 28.4901 178.75 29.2301 178.72 29.9801C178.69 30.7201 178.67 31.4101 178.67 32.0301C178.67 32.2901 178.69 32.6701 178.72 33.1401C178.75 33.6201 178.84 34.0901 178.97 34.5501C179.1 35.0101 179.32 35.4201 179.61 35.7601C179.91 36.1101 180.34 36.2801 180.9 36.2801C181.66 36.2801 182.34 35.8501 182.95 34.9901C183.56 34.1301 184.06 32.7601 184.46 30.8801H186.29C185.93 32.9601 185.47 34.6001 184.91 35.8001C184.35 37.0001 183.75 37.9201 183.13 38.5501C182.5 39.1801 181.88 39.5801 181.25 39.7601C180.62 39.9401 180.05 40.0301 179.52 40.0301C178.46 40.0301 177.57 39.8201 176.85 39.4101C176.12 39.0001 175.53 38.4501 175.07 37.7501C174.61 37.0601 174.27 36.2501 174.06 35.3301C173.85 34.4101 173.74 33.4501 173.74 32.4601C173.74 32.1601 173.75 31.6101 173.76 30.8001C173.78 29.9901 173.79 29.1301 173.81 28.2001C173.83 27.2801 173.84 26.4001 173.86 25.5801C173.88 24.7601 173.89 24.1801 173.89 23.8501C173.89 22.7901 173.81 21.9201 173.64 21.2301C173.47 20.5401 173.24 19.9901 172.95 19.6001C172.66 19.2101 172.31 18.9201 171.94 18.7601C171.56 18.6001 171.16 18.5101 170.73 18.5101C169.71 18.5101 168.82 18.9201 168.08 19.7501C167.34 20.5701 166.74 21.9601 166.27 23.9101V39.7401H161.32V5.80011L166.25 5.11011Z" fill="#25265D"/>
<path d="M202.67 15.0101V31.8301C202.67 32.2301 202.69 32.6801 202.72 33.1901C202.75 33.7001 202.84 34.1901 202.99 34.6501C203.14 35.1101 203.37 35.5001 203.68 35.8101C203.99 36.1201 204.45 36.2801 205.04 36.2801C205.3 36.2801 205.59 36.2501 205.91 36.1801C206.22 36.1101 206.48 36.0501 206.68 35.9801C206.71 36.1501 206.74 36.2901 206.75 36.4301C206.77 36.5601 206.77 36.7101 206.77 36.8801C206.77 37.8701 206.39 38.6501 205.63 39.2101C204.87 39.7701 204.01 40.0501 203.06 40.0501C202.04 40.0501 201.11 39.7001 200.29 38.9901C199.47 38.2801 198.91 37.0901 198.61 35.4001C198.11 36.6901 197.31 37.7801 196.19 38.6901C195.07 39.6001 193.72 40.0501 192.13 40.0501C191.14 40.0501 190.14 39.8401 189.14 39.4301C188.13 39.0201 187.23 38.3701 186.44 37.4801C185.65 36.5901 185 35.4301 184.49 34.0201C183.98 32.6001 183.72 30.8901 183.72 28.8701C183.72 27.3201 183.89 25.7101 184.24 24.0501C184.59 22.3801 185.13 20.8701 185.87 19.5001C186.61 18.1301 187.58 17.0001 188.77 16.1101C189.96 15.2201 191.38 14.7701 193.02 14.7701C193.88 14.7701 194.76 14.9501 195.67 15.3001C196.58 15.6601 197.26 16.3401 197.72 17.3401V15.0101H202.67ZM193.17 36.2801C193.8 36.2801 194.39 36.1301 194.95 35.8301C195.51 35.5301 196 35.1401 196.41 34.6401C196.82 34.1401 197.14 33.5701 197.37 32.9301C197.6 32.2801 197.72 31.6001 197.72 30.8701V19.5601C197.49 19.0001 197.14 18.5001 196.68 18.0701C196.22 17.6401 195.56 17.4201 194.7 17.4201C193.64 17.4201 192.75 17.7801 192.03 18.4901C191.3 19.2001 190.71 20.1001 190.25 21.1901C189.79 22.2801 189.45 23.5001 189.24 24.8401C189.03 26.1801 188.92 27.4601 188.92 28.6801C188.92 31.3601 189.33 33.2901 190.16 34.4801C190.97 35.6901 191.98 36.2801 193.17 36.2801Z" fill="#25265D"/>
<path fill-rule="evenodd" clip-rule="evenodd" d="M44.62 1.13989C47.07 1.13989 49.09 1.13989 50.74 1.26989C52.45 1.40989 54.03 1.70989 55.51 2.45989C57.8 3.62989 59.67 5.48989 60.84 7.78989C61.59 9.26989 61.89 10.8399 62.03 12.5599C62.16 14.2099 62.16 16.2299 62.16 18.6799V32.3399C62.16 34.7899 62.16 36.8099 62.03 38.4599C61.89 40.1699 61.59 41.7499 60.84 43.2299C59.67 45.5199 57.81 47.3899 55.51 48.5599C54.03 49.3099 52.46 49.6099 50.74 49.7499C49.09 49.8799 47.07 49.8799 44.62 49.8799H18.76C18.33 49.8599 17.9 49.8699 17.47 49.9099C17.28 49.9399 17.1 49.9799 16.92 50.0399C16.52 50.1999 16.13 50.3799 15.76 50.5899L5.63 55.6599C5.21 55.8699 4.74 55.9799 4.27 55.9799C2.59 55.9799 1.22 54.6199 1.22 52.9299V18.6799C1.22 16.2299 1.22 14.2099 1.35 12.5599C1.5 10.8399 1.8 9.26989 2.55 7.78989C3.72 5.49989 5.58 3.62989 7.88 2.45989C9.36 1.70989 10.93 1.40989 12.65 1.26989C14.3 1.13989 16.32 1.13989 18.77 1.13989H44.62ZM50.25 7.34989C48.88 7.22989 47.11 7.22989 44.49 7.22989H18.89C16.28 7.22989 14.51 7.22989 13.13 7.34989C11.79 7.45989 11.11 7.64989 10.63 7.89989C9.5 8.47989 8.56 9.40989 7.98 10.5599C7.74 11.0399 7.54 11.7199 7.43 13.0599C7.31 14.4299 7.31 16.1999 7.31 18.8199V48.0199L13.03 45.1599L13.16 45.0999C13.8 44.7799 14.37 44.4999 14.98 44.2899C15.51 44.1099 16.06 43.9799 16.63 43.8999C17.27 43.8099 17.9 43.8099 18.62 43.8099H44.5C47.11 43.8099 48.88 43.8099 50.26 43.6899C51.6 43.5799 52.28 43.3899 52.76 43.1399C53.91 42.5599 54.84 41.6199 55.42 40.4799C55.66 39.9999 55.86 39.3199 55.97 37.9799C56.09 36.6099 56.09 34.8399 56.09 32.2199V18.8099C56.09 16.1999 56.09 14.4299 55.98 13.0499C55.87 11.7099 55.68 11.0299 55.43 10.5499C54.85 9.39989 53.91 8.46989 52.77 7.88989C52.27 7.64989 51.58 7.44989 50.25 7.34989Z" fill="#EA3A90"/>
<path d="M45.99 27.0799C45.38 27.8199 42.69 30.0399 41.3 31.1699C40.8 31.5799 40.09 31.5799 39.59 31.1699C38.19 30.0299 35.51 27.8199 34.9 27.0799C33.96 25.9499 33.53 24.8799 33.53 23.7099C33.53 22.5699 33.92 21.5199 34.63 20.7499C35.35 19.9699 36.33 19.5399 37.4 19.5399C38.2 19.5399 38.93 19.7899 39.57 20.2899C39.91 20.5499 40.2 20.8599 40.45 21.2099C40.7 20.8599 40.99 20.5499 41.33 20.2899C41.97 19.7899 42.71 19.5399 43.51 19.5399C44.58 19.5399 45.56 19.9699 46.28 20.7499C46.99 21.5199 47.38 22.5599 47.38 23.7099C47.36 24.8799 46.93 25.9499 45.99 27.0799Z" fill="#EA3A90"/>
<path fill-rule="evenodd" clip-rule="evenodd" d="M17.06 27.5399C17.05 27.5399 17.04 27.5499 17.03 27.5499C16.13 28.0099 15.77 29.1199 16.23 30.0199C16.69 30.9199 17.8 31.2799 18.7 30.8199L26.05 27.1499C26.41 26.9699 26.69 26.6799 26.87 26.3299C27.32 25.4199 26.95 24.3199 26.05 23.8699L18.7 20.1999C18.69 20.1999 18.68 20.1899 18.67 20.1899C17.76 19.7399 16.66 20.1199 16.21 21.0299C15.76 21.9399 16.14 23.0399 17.05 23.4899L21.11 25.5199L17.06 27.5399Z" fill="#EA3A90"/>
</svg>
